<svg width="48" height="48" viewBox="0 0 48 48" fill="none" xmlns="http://www.w3.org/2000/svg">
<g clip-path="url(#clip0_3867_5221)">
<path d="M5.48438 25.5H31.4531C31.8906 25.5 32.25 25.3516 32.5312 25.0547C32.8125 24.7578 32.9531 24.3984 32.9531 23.9766C32.9531 23.5547 32.8125 23.2031 32.5312 22.9219C32.25 22.6406 31.8906 22.5 31.4531 22.5H5.57812L11.0156 17.0625C11.2969 16.7812 11.4375 16.4297 11.4375 16.0078C11.4375 15.5859 11.2969 15.2344 11.0156 14.9531C10.7969 14.7656 10.5625 14.6328 10.3125 14.5547C10.0625 14.4766 9.80469 14.4766 9.53906 14.5547C9.27344 14.6328 9.04688 14.7656 8.85938 14.9531L0 24.0469L8.85938 33.1406C9.01562 33.2656 9.1875 33.3672 9.375 33.4453C9.5625 33.5234 9.75 33.5625 9.9375 33.5625C10.3438 33.5625 10.7031 33.4219 11.0156 33.1406C11.1094 33.0469 11.1875 32.9375 11.25 32.8125C11.3125 32.6875 11.3594 32.5625 11.3906 32.4375C11.4219 32.3125 11.4375 32.1875 11.4375 32.0625C11.4375 31.9375 11.4219 31.8125 11.3906 31.6875C11.3594 31.5625 11.3125 31.4375 11.25 31.3125C11.1875 31.1875 11.1094 31.0781 11.0156 30.9844L5.48438 25.5ZM45 0H19.5C18.6562 0 17.9453 0.289062 17.3672 0.867188C16.7891 1.44531 16.5 2.15625 16.5 3V16.5H19.5V4.82812C19.5 4.51562 19.5781 4.21875 19.7344 3.9375C19.8906 3.65625 20.1094 3.42969 20.3906 3.25781C20.6719 3.08594 20.9844 3 21.3281 3H43.125C43.625 3 44.0469 3.17969 44.3906 3.53906C44.7344 3.89844 44.9062 4.32812 44.9062 4.82812L44.9531 43.1719C44.9531 43.6719 44.7812 44.1016 44.4375 44.4609C44.0938 44.8203 43.6719 45 43.1719 45H21.3281C20.8281 45 20.3984 44.8203 20.0391 44.4609C19.6797 44.1016 19.5 43.6719 19.5 43.1719V31.4531H16.5V45C16.5 45.8438 16.7891 46.5547 17.3672 47.1328C17.9453 47.7109 18.6562 48 19.5 48H45C45.1875 48 45.3828 47.9766 45.5859 47.9297C45.7891 47.8828 45.9766 47.8281 46.1484 47.7656C46.3203 47.7031 46.4922 47.6172 46.6641 47.5078C46.8359 47.3984 46.9844 47.2734 47.1094 47.1328C47.2344 46.9922 47.3516 46.8438 47.4609 46.6875C47.5703 46.5312 47.6641 46.3594 47.7422 46.1719C47.8203 45.9844 47.8828 45.7969 47.9297 45.6094C47.9766 45.4219 48 45.2188 48 45V3C48 1.78125 47.4531 0.890625 46.3594 0.328125C45.9219 0.109375 45.4688 0 45 0Z" fill="#FF0000"/>
</g>
<defs>
<clipPath id="clip0_3867_5221">
<rect width="48" height="48" fill="white"/>
</clipPath>
</defs>
</svg>
